<?xml version="1.0" encoding="UTF-8"?>
<svg id="Layer_1" data-name="Layer 1" xmlns="http://www.w3.org/2000/svg" viewBox="0 0 98.48 90.27">
  <defs>
    <style>
      .cls-1 {
        fill: #76abae;
        stroke-width: 0px;
      }
    </style>
  </defs>
  <path class="cls-1" d="M61.55,0H4.1C1.85,0,0,1.85,0,4.1v16.41c0,2.26,1.85,4.1,4.1,4.1h57.45c2.26,0,4.1-1.85,4.1-4.1V4.1c0-2.26-1.85-4.1-4.1-4.1ZM57.45,16.41H8.21v-8.21h49.24v8.21Z"/>
  <path class="cls-1" d="M86.17,0c-6.8,0-12.31,5.51-12.31,12.31s5.51,12.31,12.31,12.31,12.31-5.51,12.31-12.31S92.97,0,86.17,0ZM86.17,16.41c-2.26,0-4.1-1.84-4.1-4.1s1.84-4.1,4.1-4.1,4.1,1.84,4.1,4.1-1.84,4.1-4.1,4.1Z"/>
  <path class="cls-1" d="M36.93,57.45h57.45c2.26,0,4.1-1.85,4.1-4.1v-16.41c0-2.26-1.85-4.1-4.1-4.1h-57.45c-2.26,0-4.1,1.85-4.1,4.1v16.41c0,2.26,1.85,4.1,4.1,4.1ZM41.03,41.03h49.24v8.21h-49.24v-8.21Z"/>
  <path class="cls-1" d="M12.31,57.45c6.8,0,12.31-5.51,12.31-12.31s-5.51-12.31-12.31-12.31S0,38.34,0,45.14s5.51,12.31,12.31,12.31ZM12.31,41.03c2.26,0,4.1,1.84,4.1,4.1s-1.84,4.1-4.1,4.1-4.1-1.84-4.1-4.1,1.84-4.1,4.1-4.1Z"/>
  <path class="cls-1" d="M61.55,65.65H4.1c-2.26,0-4.1,1.85-4.1,4.1v16.41c0,2.26,1.85,4.1,4.1,4.1h57.45c2.26,0,4.1-1.85,4.1-4.1v-16.41c0-2.26-1.85-4.1-4.1-4.1ZM57.45,82.07H8.21v-8.21h49.24v8.21Z"/>
  <path class="cls-1" d="M86.17,65.65c-6.8,0-12.31,5.51-12.31,12.31s5.51,12.31,12.31,12.31,12.31-5.51,12.31-12.31-5.51-12.31-12.31-12.31ZM86.17,82.07c-2.26,0-4.1-1.84-4.1-4.1s1.84-4.1,4.1-4.1,4.1,1.84,4.1,4.1-1.84,4.1-4.1,4.1Z"/>
</svg>