<?xml version="1.0" encoding="UTF-8"?>
<svg id="Layer_1" data-name="Layer 1" xmlns="http://www.w3.org/2000/svg" viewBox="0 0 991.68 101.63">
  <defs>
    <style>
      .cls-1 {
        fill: #eee;
      }

      .cls-1, .cls-2 {
        stroke-width: 0px;
      }

      .cls-2 {
        fill: #76abae;
      }
    </style>
  </defs>
  <g>
    <path class="cls-1" d="M174.39,85.05h-32.9s0,0,0,0l-5.27,15.56s0,0,0,0h-22.47s0,0,0-.01l31.9-88.17s0,0,0,0h24.86s0,0,0,0l31.9,88.17s0,.01,0,.01h-22.72s0,0,0,0l-5.27-15.56s0,0,0,0ZM168.86,68.45l-10.92-32.25s-.01,0-.02,0l-10.79,32.25s0,.01,0,.01h21.71s0,0,0-.01Z"/>
    <path class="cls-1" d="M233.56,7.67v92.94s0,0,0,0h-21.46s0,0,0,0V7.67s0,0,0,0h21.46s0,0,0,0Z"/>
    <path class="cls-1" d="M250.71,19.91c-2.45-2.27-3.74-5.62-3.56-8.95.16-3.03,1.35-5.58,3.56-7.64,2.39-2.22,5.46-3.33,9.23-3.33s6.72,1.11,9.11,3.33c2.25,2.09,3.44,4.68,3.57,7.77.14,3.29-1.16,6.57-3.57,8.82-2.39,2.22-5.42,3.32-9.1,3.32s-6.84-1.11-9.23-3.33ZM270.62,30.53v70.08s0,0,0,0h-21.46s0,0,0,0V30.53s0,0,0,0h21.46s0,0,0,0Z"/>
    <path class="cls-1" d="M367.72,85.05h-32.91l-5.28,15.58h-22.49l31.91-88.19h24.87l31.91,88.19h-22.74l-5.28-15.58ZM362.2,68.46l-10.93-32.28-10.8,32.28h21.73Z"/>
    <path class="cls-1" d="M426.89,7.66v92.96h-21.48V7.66h21.48Z"/>
    <path class="cls-1" d="M444.04,19.91c-2.44-2.27-3.74-5.61-3.56-8.94.16-3.03,1.35-5.58,3.56-7.64,2.39-2.22,5.46-3.33,9.23-3.33s6.72,1.11,9.11,3.33c2.25,2.09,3.44,4.68,3.57,7.77.14,3.29-1.16,6.57-3.57,8.81-2.39,2.22-5.42,3.33-9.11,3.33s-6.85-1.11-9.23-3.33ZM463.95,30.53v70.1h-21.48V30.53h21.48Z"/>
    <path class="cls-1" d="M492.9,97.23c-5.49-2.93-9.8-7.12-12.94-12.56-3.14-5.44-4.71-11.81-4.71-19.09s1.59-13.55,4.77-19.03c3.18-5.48,7.54-9.69,13.07-12.63,5.53-2.93,11.72-4.4,18.59-4.4s13.06,1.47,18.59,4.4c5.53,2.93,9.88,7.14,13.06,12.63,3.18,5.49,4.77,11.83,4.77,19.03s-1.61,13.55-4.84,19.03c-3.22,5.49-7.62,9.69-13.19,12.62-5.57,2.93-11.79,4.4-18.65,4.4s-13.04-1.47-18.53-4.4ZM521.92,78.51c2.89-3.01,4.33-7.33,4.33-12.94,0-8.19-3-13.63-8.98-16.28-1.8-.8-3.79-1.2-5.76-1.18-4.11.04-7.53,1.53-10.26,4.46-2.76,2.97-4.15,7.31-4.15,13s1.36,9.92,4.08,12.94c2.72,3.01,6.13,4.52,10.24,4.52s7.6-1.51,10.49-4.52Z"/>
    <path class="cls-1" d="M628.76,30.53v70.1h-21.48v-9.55c-2.18,3.1-5.13,5.59-8.86,7.47-3.73,1.88-7.85,2.83-12.37,2.83-5.36,0-10.09-1.19-14.19-3.58-4.1-2.39-7.29-5.84-9.55-10.37-2.26-4.52-3.39-9.84-3.39-15.95V30.53h21.36v38.06c0,4.69,1.21,8.33,3.64,10.93,2.43,2.6,5.69,3.89,9.8,3.89s7.49-1.3,9.92-3.89c2.43-2.6,3.64-6.24,3.64-10.93V30.53h21.48Z"/>
    <path class="cls-1" d="M656.4,98.49c-4.77-2.09-8.54-4.96-11.31-8.61-2.76-3.64-4.31-7.73-4.65-12.25h21.23c.25,2.43,1.38,4.4,3.39,5.9,2.01,1.51,4.48,2.26,7.41,2.26,2.68,0,4.75-.52,6.22-1.57,1.47-1.05,2.2-2.41,2.2-4.08,0-2.01-1.05-3.49-3.14-4.46-2.09-.96-5.49-2.03-10.17-3.2-5.03-1.17-9.21-2.41-12.56-3.7-3.35-1.3-6.24-3.35-8.67-6.16-2.43-2.8-3.64-6.59-3.64-11.37,0-4.02,1.11-7.68,3.33-10.99,2.22-3.31,5.48-5.92,9.8-7.85,4.31-1.93,9.44-2.89,15.39-2.89,8.79,0,15.72,2.18,20.79,6.53,5.07,4.36,7.98,10.13,8.73,17.34h-19.85c-.34-2.43-1.4-4.35-3.2-5.78-1.8-1.42-4.17-2.14-7.1-2.14-2.51,0-4.44.48-5.78,1.44-1.34.96-2.01,2.28-2.01,3.96,0,2.01,1.07,3.52,3.2,4.52s5.46,2.01,9.99,3.01c5.19,1.34,9.42,2.66,12.69,3.96,3.27,1.3,6.13,3.39,8.61,6.28,2.47,2.89,3.75,6.76,3.83,11.62,0,4.1-1.15,7.77-3.46,10.99-2.3,3.22-5.61,5.76-9.92,7.6-4.31,1.84-9.32,2.76-15.01,2.76-6.11,0-11.56-1.05-16.33-3.14Z"/>
    <path class="cls-1" d="M714.12,46.48c2.72-5.44,6.43-9.63,11.12-12.56,4.69-2.93,9.92-4.4,15.7-4.4,4.94,0,9.27,1,13,3.01s6.6,4.65,8.61,7.91v-9.92h21.48v70.1h-21.48v-9.92c-2.09,3.27-5,5.91-8.73,7.91-3.73,2.01-8.06,3.01-13,3.01-5.7,0-10.89-1.49-15.58-4.46-4.69-2.97-8.4-7.2-11.12-12.69-2.72-5.48-4.08-11.83-4.08-19.03s1.36-13.52,4.08-18.97ZM758.09,52.89c-2.96-3.08-6.55-4.63-10.78-4.65-3.07-.01-6.12.91-8.64,2.65-4.51,3.11-6.77,7.96-6.77,14.56,0,5.36,1.49,9.61,4.46,12.75,2.97,3.14,6.6,4.71,10.87,4.71s7.89-1.55,10.87-4.65c2.97-3.1,4.46-7.33,4.46-12.69s-1.49-9.59-4.46-12.69Z"/>
    <path class="cls-1" d="M821.08,7.66v92.96h-21.48V7.66h21.48Z"/>
    <path class="cls-1" d="M836.47,46.48c2.72-5.44,6.43-9.63,11.12-12.56,4.69-2.93,9.92-4.4,15.7-4.4,4.94,0,9.27,1,13,3.01,3.73,2.01,6.6,4.65,8.61,7.91v-9.92h21.48v70.1h-21.48v-9.92c-2.09,3.27-5,5.91-8.73,7.91-3.73,2.01-8.06,3.01-13,3.01-5.7,0-10.89-1.49-15.58-4.46-4.69-2.97-8.4-7.2-11.12-12.69-2.72-5.48-4.08-11.83-4.08-19.03s1.36-13.52,4.08-18.97ZM880.44,52.89c-2.96-3.08-6.55-4.63-10.78-4.65-3.07-.01-6.12.91-8.64,2.65-4.51,3.11-6.77,7.96-6.77,14.56,0,5.36,1.49,9.61,4.46,12.75,2.97,3.14,6.6,4.71,10.87,4.71s7.89-1.55,10.87-4.65c2.97-3.1,4.46-7.33,4.46-12.69s-1.49-9.59-4.46-12.69Z"/>
    <path class="cls-1" d="M984.39,37.75c4.86,5.32,7.29,12.62,7.29,21.92v40.95h-21.36v-38.06c0-4.69-1.22-8.33-3.64-10.93-2.43-2.59-5.7-3.89-9.8-3.89s-7.37,1.3-9.8,3.89c-2.43,2.6-3.64,6.24-3.64,10.93v38.06h-21.48V7.66h21.48v32.28c2.18-3.1,5.15-5.57,8.92-7.41,3.77-1.84,8-2.76,12.69-2.76,8.04,0,14.49,2.66,19.35,7.98Z"/>
  </g>
  <g>
    <path class="cls-2" d="M61.55,5.68H4.1C1.85,5.68,0,7.52,0,9.78v16.41c0,2.26,1.85,4.1,4.1,4.1h57.45c2.26,0,4.1-1.85,4.1-4.1V9.78c0-2.26-1.85-4.1-4.1-4.1ZM57.45,22.09H8.21v-8.21h49.24v8.21Z"/>
    <path class="cls-2" d="M86.17,5.68c-6.8,0-12.31,5.51-12.31,12.31s5.51,12.31,12.31,12.31,12.31-5.51,12.31-12.31-5.51-12.31-12.31-12.31ZM86.17,22.09c-2.26,0-4.1-1.84-4.1-4.1s1.84-4.1,4.1-4.1,4.1,1.84,4.1,4.1-1.84,4.1-4.1,4.1Z"/>
    <path class="cls-2" d="M36.93,63.12h57.45c2.26,0,4.1-1.85,4.1-4.1v-16.41c0-2.26-1.85-4.1-4.1-4.1h-57.45c-2.26,0-4.1,1.85-4.1,4.1v16.41c0,2.26,1.85,4.1,4.1,4.1ZM41.03,46.71h49.24v8.21h-49.24v-8.21Z"/>
    <path class="cls-2" d="M12.31,63.12c6.8,0,12.31-5.51,12.31-12.31s-5.51-12.31-12.31-12.31S0,44.02,0,50.81s5.51,12.31,12.31,12.31ZM12.31,46.71c2.26,0,4.1,1.84,4.1,4.1s-1.84,4.1-4.1,4.1-4.1-1.84-4.1-4.1,1.84-4.1,4.1-4.1Z"/>
    <path class="cls-2" d="M61.55,71.33H4.1c-2.26,0-4.1,1.85-4.1,4.1v16.41c0,2.26,1.85,4.1,4.1,4.1h57.45c2.26,0,4.1-1.85,4.1-4.1v-16.41c0-2.26-1.85-4.1-4.1-4.1ZM57.45,87.74H8.21v-8.21h49.24v8.21Z"/>
    <path class="cls-2" d="M86.17,71.33c-6.8,0-12.31,5.51-12.31,12.31s5.51,12.31,12.31,12.31,12.31-5.51,12.31-12.31-5.51-12.31-12.31-12.31ZM86.17,87.74c-2.26,0-4.1-1.84-4.1-4.1s1.84-4.1,4.1-4.1,4.1,1.84,4.1,4.1-1.84,4.1-4.1,4.1Z"/>
  </g>
</svg>